<svg width="20" height="20" viewBox="0 0 20 20" fill="none" xmlns="http://www.w3.org/2000/svg">
<g id="data" clip-path="url(#clip0_1602_139194)">
<g id="Icon">
<path d="M2.33203 18.3332C2.09867 18.3332 1.982 18.3332 1.89287 18.2878C1.81447 18.2478 1.75073 18.1841 1.71078 18.1057C1.66536 18.0165 1.66536 17.8999 1.66536 17.6665V8.99984C1.66536 8.76648 1.66536 8.64981 1.71078 8.56068C1.75072 8.48228 1.81447 8.41853 1.89287 8.37859C1.982 8.33317 2.09867 8.33317 2.33203 8.33317L4.33203 8.33317C4.56539 8.33317 4.68206 8.33317 4.77119 8.37859C4.84959 8.41853 4.91334 8.48227 4.95328 8.56068C4.9987 8.64981 4.9987 8.76648 4.9987 8.99984V10.9998C4.9987 11.2332 4.9987 11.3499 5.04411 11.439C5.08406 11.5174 5.1478 11.5811 5.2262 11.6211C5.31533 11.6665 5.43201 11.6665 5.66536 11.6665H7.66536C7.89872 11.6665 8.0154 11.6665 8.10453 11.7119C8.18293 11.7519 8.24667 11.8156 8.28662 11.894C8.33203 11.9831 8.33203 12.0998 8.33203 12.3332V14.3332C8.33203 14.5665 8.33203 14.6832 8.37744 14.7723C8.41739 14.8507 8.48113 14.9145 8.55953 14.9544C8.64866 14.9998 8.76534 14.9998 8.9987 14.9998H10.9987C11.2321 14.9998 11.3487 14.9998 11.4379 15.0453C11.5163 15.0852 11.58 15.1489 11.62 15.2273C11.6654 15.3165 11.6654 15.4331 11.6654 15.6665V17.6665C11.6654 17.8999 11.6654 18.0165 11.62 18.1057C11.58 18.1841 11.5163 18.2478 11.4379 18.2878C11.3487 18.3332 11.2321 18.3332 10.9987 18.3332L2.33203 18.3332Z" stroke="#474747" stroke-width="1.5" stroke-linecap="round" stroke-linejoin="round"/>
<path d="M11.6654 5.6665C11.6654 5.43315 11.6654 5.31647 11.62 5.22734C11.58 5.14894 11.5163 5.0852 11.4379 5.04525C11.3487 4.99984 11.2321 4.99984 10.9987 4.99984H8.9987C8.76534 4.99984 8.64866 4.99984 8.55953 5.04525C8.48113 5.0852 8.41739 5.14894 8.37744 5.22734C8.33203 5.31647 8.33203 5.43315 8.33203 5.6665V7.6665C8.33203 7.89986 8.33203 8.01654 8.37744 8.10567C8.41739 8.18407 8.48113 8.24781 8.55953 8.28776C8.64866 8.33317 8.76534 8.33317 8.9987 8.33317H10.9987C11.2321 8.33317 11.3487 8.33317 11.4379 8.28776C11.5163 8.24781 11.58 8.18407 11.62 8.10567C11.6654 8.01654 11.6654 7.89986 11.6654 7.6665V5.6665Z" stroke="#474747" stroke-width="1.5" stroke-linecap="round" stroke-linejoin="round"/>
<path d="M17.4987 10.6665C17.4987 10.4331 17.4987 10.3165 17.4533 10.2273C17.4133 10.1489 17.3496 10.0852 17.2712 10.0453C17.1821 9.99984 17.0654 9.99984 16.832 9.99984H14.832C14.5987 9.99984 14.482 9.99984 14.3929 10.0453C14.3145 10.0852 14.2507 10.1489 14.2108 10.2273C14.1654 10.3165 14.1654 10.4331 14.1654 10.6665V12.6665C14.1654 12.8999 14.1654 13.0165 14.2108 13.1057C14.2507 13.1841 14.3145 13.2478 14.3929 13.2878C14.482 13.3332 14.5987 13.3332 14.832 13.3332H16.832C17.0654 13.3332 17.1821 13.3332 17.2712 13.2878C17.3496 13.2478 17.4133 13.1841 17.4533 13.1057C17.4987 13.0165 17.4987 12.8999 17.4987 12.6665V10.6665Z" stroke="#474747" stroke-width="1.5" stroke-linecap="round" stroke-linejoin="round"/>
<path d="M18.332 2.33317C18.332 2.09982 18.332 1.98314 18.2866 1.89401C18.2467 1.81561 18.1829 1.75187 18.1045 1.71192C18.0154 1.6665 17.8987 1.6665 17.6654 1.6665H15.6654C15.432 1.6665 15.3153 1.6665 15.2262 1.71192C15.1478 1.75187 15.0841 1.81561 15.0441 1.89401C14.9987 1.98314 14.9987 2.09982 14.9987 2.33317V4.33317C14.9987 4.56653 14.9987 4.6832 15.0441 4.77233C15.0841 4.85073 15.1478 4.91448 15.2262 4.95442C15.3153 4.99984 15.432 4.99984 15.6654 4.99984H17.6654C17.8987 4.99984 18.0154 4.99984 18.1045 4.95442C18.1829 4.91448 18.2467 4.85073 18.2866 4.77233C18.332 4.6832 18.332 4.56653 18.332 4.33317V2.33317Z" stroke="#474747" stroke-width="1.5" stroke-linecap="round" stroke-linejoin="round"/>
</g>
</g>
<defs>
<clipPath id="clip0_1602_139194">
<rect width="20" height="20" fill="white" transform="matrix(-1 0 0 1 20 0)"/>
</clipPath>
</defs>
</svg>
