<svg width="20" height="20" viewBox="0 0 20 20" fill="none" xmlns="http://www.w3.org/2000/svg">
<g id="grid-02">
<path id="Icon" d="M6.66667 2.5H5.16667C4.23325 2.5 3.76654 2.5 3.41002 2.68166C3.09641 2.84144 2.84144 3.09641 2.68166 3.41002C2.5 3.76654 2.5 4.23325 2.5 5.16667V6.66667M6.66667 17.5H5.16667C4.23325 17.5 3.76654 17.5 3.41002 17.3183C3.09641 17.1586 2.84144 16.9036 2.68166 16.59C2.5 16.2335 2.5 15.7668 2.5 14.8333V13.3333M17.5 6.66667V5.16667C17.5 4.23325 17.5 3.76654 17.3183 3.41002C17.1586 3.09641 16.9036 2.84144 16.59 2.68166C16.2335 2.5 15.7668 2.5 14.8333 2.5H13.3333M17.5 13.3333V14.8333C17.5 15.7668 17.5 16.2335 17.3183 16.59C17.1586 16.9036 16.9036 17.1586 16.59 17.3183C16.2335 17.5 15.7668 17.5 14.8333 17.5H13.3333M10 14.1667L10 5.83333M5.83333 10H14.1667" stroke="#474747" stroke-width="1.5" stroke-linecap="round" stroke-linejoin="round"/>
</g>
</svg>
