<svg width="20" height="20" viewBox="0 0 20 20" fill="none" xmlns="http://www.w3.org/2000/svg">
<g id="coins-swap-01" clip-path="url(#clip0_1586_139533)">
<path id="Icon" d="M5.0013 4.99984L6.66797 3.33317M6.66797 3.33317L5.0013 1.6665M6.66797 3.33317H5.0013C3.16035 3.33317 1.66797 4.82555 1.66797 6.6665M15.0013 14.9998L13.3346 16.6665M13.3346 16.6665L15.0013 18.3332M13.3346 16.6665H15.0013C16.8423 16.6665 18.3346 15.1741 18.3346 13.3332M11.1823 11.1808C11.8342 11.4922 12.564 11.6665 13.3346 11.6665C16.0961 11.6665 18.3346 9.42793 18.3346 6.6665C18.3346 3.90508 16.0961 1.6665 13.3346 1.6665C10.5732 1.6665 8.33464 3.90508 8.33464 6.6665C8.33464 7.4371 8.50896 8.16698 8.82033 8.81886M11.668 13.3332C11.668 16.0946 9.42939 18.3332 6.66797 18.3332C3.90655 18.3332 1.66797 16.0946 1.66797 13.3332C1.66797 10.5717 3.90655 8.33317 6.66797 8.33317C9.42939 8.33317 11.668 10.5717 11.668 13.3332Z" stroke="#474747" stroke-width="1.5" stroke-linecap="round" stroke-linejoin="round"/>
</g>
<defs>
<clipPath id="clip0_1586_139533">
<rect width="20" height="20" fill="white"/>
</clipPath>
</defs>
</svg>
