<svg width="20" height="20" viewBox="0 0 20 20" fill="none" xmlns="http://www.w3.org/2000/svg">
<g id="route" clip-path="url(#clip0_1663_139108)">
<path id="Icon" d="M9.58464 4.1665H9.94663C12.486 4.1665 13.7557 4.1665 14.2377 4.62258C14.6543 5.01681 14.8389 5.59757 14.7264 6.16001C14.5963 6.81068 13.5597 7.54388 11.4865 9.01028L8.0994 11.4061C6.02622 12.8725 4.98963 13.6057 4.8595 14.2563C4.74702 14.8188 4.93165 15.3995 5.34827 15.7938C5.83025 16.2498 7.09993 16.2498 9.6393 16.2498H10.418M6.66797 4.1665C6.66797 5.54722 5.54868 6.6665 4.16797 6.6665C2.78726 6.6665 1.66797 5.54722 1.66797 4.1665C1.66797 2.78579 2.78726 1.6665 4.16797 1.6665C5.54868 1.6665 6.66797 2.78579 6.66797 4.1665ZM18.3346 15.8332C18.3346 17.2139 17.2153 18.3332 15.8346 18.3332C14.4539 18.3332 13.3346 17.2139 13.3346 15.8332C13.3346 14.4525 14.4539 13.3332 15.8346 13.3332C17.2153 13.3332 18.3346 14.4525 18.3346 15.8332Z" stroke="#474747" stroke-width="1.5" stroke-linecap="round" stroke-linejoin="round"/>
</g>
<defs>
<clipPath id="clip0_1663_139108">
<rect width="20" height="20" fill="white"/>
</clipPath>
</defs>
</svg>
