<svg width="24" height="24" viewBox="0 0 24 24" fill="none" xmlns="http://www.w3.org/2000/svg">
<g id="Frame 1000009827">
<path id="icon" fill-rule="evenodd" clip-rule="evenodd" d="M12.0052 10.1109L15.8694 6.24663L17.9908 8.36795L14.1265 12.2322L11.1991 13.0383L12.0052 10.1109ZM16.5766 5.53952L18.6979 7.66084L20.0869 6.27178C20.1374 6.18169 20.2274 5.98609 20.2366 5.73967C20.2458 5.49402 20.1821 5.08499 19.6672 4.57017C19.1524 4.05534 18.7434 3.99156 18.4977 4.00078C18.2513 4.01003 18.0557 4.10004 17.9656 4.15046L16.5766 5.53952ZM20.1132 6.24555C20.1141 6.24459 20.1142 6.2445 20.1134 6.24532L20.1132 6.24555ZM17.9921 4.124C17.9929 4.12318 17.9928 4.12331 17.9918 4.12423L17.9921 4.124ZM17.285 3.41689C17.3175 3.38439 17.3514 3.35454 17.3901 3.32981C17.6716 3.1501 18.9675 2.45624 20.3743 3.86306C21.7812 5.26988 21.0873 6.5658 20.9076 6.84726C20.8829 6.886 20.853 6.91993 20.8205 6.95243L14.8336 12.9393C14.7112 13.0618 14.559 13.1503 14.392 13.1963L11.4646 14.0024C10.7165 14.2084 10.029 13.5209 10.235 12.7728L11.0411 9.8454C11.0871 9.67841 11.1756 9.52624 11.2981 9.40377L17.285 3.41689ZM4 5.59529C3.72386 5.59529 3.5 5.81915 3.5 6.09529V20.0953C3.5 20.3714 3.72386 20.5953 4 20.5953H19C19.2761 20.5953 19.5 20.3714 19.5 20.0953V14.0953C19.5 13.8192 19.2761 13.5953 19 13.5953C18.7239 13.5953 18.5 13.8192 18.5 14.0953V19.5953H4.5V6.59529H10.5C10.7761 6.59529 11 6.37144 11 6.09529C11 5.81915 10.7761 5.59529 10.5 5.59529H4Z" fill="#4C5BD4"/>
</g>
</svg>
