<svg width="25" height="24" viewBox="0 0 25 24" fill="none" xmlns="http://www.w3.org/2000/svg">
<g id="Edit 1">
<path id="Rectangle 54" d="M12.5039 3.9979H7.69141C5.931 3.9979 4.50391 5.42499 4.50391 7.1854V16.8104C4.50391 18.5708 5.931 19.9979 7.69141 19.9979H17.3164C19.0768 19.9979 20.5039 18.5708 20.5039 16.8104V11.9979M18.9181 8.4121L20.0039 7.32634C20.7849 6.54529 20.7849 5.27897 20.0039 4.49792C19.2228 3.71687 17.9565 3.71688 17.1754 4.49794L16.0897 5.58367M18.9181 8.4121L12.8819 14.4485C12.6027 14.7277 12.2471 14.918 11.8599 14.9954L8.91813 15.5838L9.50648 12.642C9.58391 12.2548 9.77422 11.8992 10.0534 11.62L16.0897 5.58367M18.9181 8.4121L16.0897 5.58367" stroke="#4C5BD4" stroke-width="1.2" stroke-linecap="round" stroke-linejoin="round"/>
</g>
</svg>
