<svg width="20" height="20" viewBox="0 0 20 20" fill="none" xmlns="http://www.w3.org/2000/svg">
<g id="coins-hand" clip-path="url(#clip0_1586_139537)">
<path id="Icon" d="M11.2759 6.95972C10.7989 7.29979 10.2151 7.49984 9.58464 7.49984C7.97381 7.49984 6.66797 6.194 6.66797 4.58317C6.66797 2.97234 7.97381 1.6665 9.58464 1.6665C10.6288 1.6665 11.5448 2.21519 12.0601 3.03996M5.0013 16.7391H7.17654C7.46016 16.7391 7.74204 16.7729 8.01698 16.8404L10.3154 17.3989C10.8141 17.5204 11.3336 17.5322 11.8375 17.4343L14.3788 16.9399C15.0501 16.8092 15.6676 16.4877 16.1516 16.0169L17.9495 14.2679C18.463 13.7693 18.463 12.9602 17.9495 12.4607C17.4873 12.011 16.7552 11.9604 16.2322 12.3418L14.1368 13.8705C13.8367 14.0899 13.4716 14.208 13.096 14.208H11.0726L12.3605 14.208C13.0865 14.208 13.6745 13.6359 13.6745 12.9298V12.6741C13.6745 12.0878 13.2643 11.5765 12.6797 11.4347L10.6918 10.9513C10.3683 10.8728 10.037 10.8332 9.70392 10.8332C8.89991 10.8332 7.44455 11.4989 7.44455 11.4989L5.0013 12.5206M16.668 5.4165C16.668 7.02733 15.3621 8.33317 13.7513 8.33317C12.1405 8.33317 10.8346 7.02733 10.8346 5.4165C10.8346 3.80567 12.1405 2.49984 13.7513 2.49984C15.3621 2.49984 16.668 3.80567 16.668 5.4165ZM1.66797 12.1665L1.66797 16.9998C1.66797 17.4665 1.66797 17.6999 1.7588 17.8782C1.83869 18.035 1.96617 18.1624 2.12298 18.2423C2.30124 18.3332 2.53459 18.3332 3.0013 18.3332H3.66797C4.13468 18.3332 4.36803 18.3332 4.54629 18.2423C4.7031 18.1624 4.83058 18.035 4.91047 17.8782C5.0013 17.6999 5.0013 17.4665 5.0013 16.9998V12.1665C5.0013 11.6998 5.0013 11.4664 4.91047 11.2882C4.83058 11.1314 4.7031 11.0039 4.54629 10.924C4.36803 10.8332 4.13468 10.8332 3.66797 10.8332L3.0013 10.8332C2.53459 10.8332 2.30124 10.8332 2.12298 10.924C1.96618 11.0039 1.83869 11.1314 1.7588 11.2882C1.66797 11.4664 1.66797 11.6998 1.66797 12.1665Z" stroke="#474747" stroke-width="1.5" stroke-linecap="round" stroke-linejoin="round"/>
</g>
<defs>
<clipPath id="clip0_1586_139537">
<rect width="20" height="20" fill="white"/>
</clipPath>
</defs>
</svg>
