<svg width="20" height="20" viewBox="0 0 20 20" fill="none" xmlns="http://www.w3.org/2000/svg">
<g id="scales-02">
<path id="Icon" d="M2.08194 10.8332H7.08194M12.9153 10.8332H17.9153M9.9986 5.83317V17.4998M9.9986 5.83317C11.1492 5.83317 12.0819 4.90043 12.0819 3.74984M9.9986 5.83317C8.84801 5.83317 7.91527 4.90043 7.91527 3.74984M3.33194 17.4998L16.6653 17.4998M3.33194 3.74984L7.91527 3.74984M7.91527 3.74984C7.91527 2.59924 8.84801 1.6665 9.9986 1.6665C11.1492 1.6665 12.0819 2.59924 12.0819 3.74984M12.0819 3.74984L16.6653 3.74984M7.39897 11.9468C7.06506 13.2253 5.93036 14.1665 4.58194 14.1665C3.23352 14.1665 2.09882 13.2253 1.76491 11.9468C1.73762 11.8423 1.72398 11.7901 1.72267 11.5814C1.72186 11.4535 1.76941 11.1585 1.81037 11.0373C1.87719 10.8395 1.94953 10.7279 2.0942 10.5047L4.58194 6.6665L7.06968 10.5047C7.21435 10.7279 7.28668 10.8395 7.35351 11.0373C7.39447 11.1585 7.44202 11.4535 7.44121 11.5814C7.43989 11.7901 7.42625 11.8423 7.39897 11.9468ZM18.2323 11.9468C17.8984 13.2253 16.7637 14.1665 15.4153 14.1665C14.0669 14.1665 12.9322 13.2253 12.5982 11.9468C12.571 11.8423 12.5573 11.7901 12.556 11.5814C12.5552 11.4535 12.6027 11.1585 12.6437 11.0373C12.7105 10.8395 12.7829 10.7279 12.9275 10.5047L15.4153 6.6665L17.903 10.5047C18.0477 10.7279 18.12 10.8395 18.1868 11.0373C18.2278 11.1585 18.2753 11.4535 18.2745 11.5814C18.2732 11.7901 18.2596 11.8423 18.2323 11.9468Z" stroke="#474747" stroke-width="1.5" stroke-linecap="round" stroke-linejoin="round"/>
</g>
</svg>
