<svg width="20" height="20" viewBox="0 0 20 20" fill="none" xmlns="http://www.w3.org/2000/svg">
<g id="arrows-triangle">
<path id="Icon" d="M10.8346 15.8332H14.4132C15.9675 15.8332 16.7446 15.8332 17.1859 15.5076C17.5706 15.2236 17.8149 14.7881 17.8565 14.3118C17.9043 13.7655 17.4991 13.1023 16.6886 11.776L15.8578 10.4166M5.10975 8.8376L3.31404 11.776C2.50353 13.1023 2.09828 13.7655 2.14607 14.3118C2.18774 14.7881 2.43198 15.2236 2.81669 15.5076C3.25796 15.8332 4.03512 15.8332 5.58945 15.8332H7.08464M14.0754 7.49991L12.2767 4.55666C11.5244 3.32558 11.1482 2.71004 10.664 2.50019C10.2412 2.31699 9.76142 2.31699 9.33864 2.50019C8.85437 2.71004 8.47821 3.32558 7.72588 4.55666L6.87603 5.94733M15.0013 4.16663L14.0862 7.5817L10.6712 6.66663M1.66797 9.66497L5.08303 8.74991L5.9981 12.165M12.918 18.3332L10.418 15.8332L12.918 13.3332" stroke="#474747" stroke-width="1.5" stroke-linecap="round" stroke-linejoin="round"/>
</g>
</svg>
