<svg width="20" height="20" viewBox="0 0 20 20" fill="none" xmlns="http://www.w3.org/2000/svg">
<g id="outline / pressure-gauge">
<path id="shape" d="M15.8333 14.1667C16.7538 14.1667 17.5 14.9129 17.5 15.8333C17.5 16.7538 16.7538 17.5 15.8333 17.5C14.9129 17.5 14.1667 16.7538 14.1667 15.8333C14.1667 14.9129 14.9129 14.1667 15.8333 14.1667ZM15.8333 14.1667V12.9167C15.8333 12.3641 15.6138 11.8342 15.2231 11.4435C14.8324 11.0528 14.3025 10.8333 13.75 10.8333C13.1975 10.8333 12.6676 11.0528 12.2769 11.4435C11.8862 11.8342 11.6667 12.3641 11.6667 12.9167V14.1667C11.6667 14.8297 11.4033 15.4656 10.9344 15.9344C10.4656 16.4033 9.82971 16.6667 9.16667 16.6667C8.50363 16.6667 7.86774 16.4033 7.3989 15.9344C6.93006 15.4656 6.66667 14.8297 6.66667 14.1667V10.8333M6.66667 4.58333V6.66667L7.70833 7.70833M6.66667 10.8333C8.96785 10.8333 10.8333 8.96785 10.8333 6.66667C10.8333 4.36548 8.96785 2.5 6.66667 2.5C4.36548 2.5 2.5 4.36548 2.5 6.66667C2.5 8.96785 4.36548 10.8333 6.66667 10.8333Z" stroke="#474747" stroke-width="1.5" stroke-linecap="round" stroke-linejoin="round"/>
</g>
</svg>
