<svg width="20" height="20" viewBox="0 0 20 20" fill="none" xmlns="http://www.w3.org/2000/svg">
<g id="plane">
<path id="Icon" d="M14.7863 2.34423C15.5903 1.51383 16.9186 1.50309 17.7359 2.32038C18.5308 3.11528 18.5456 4.39942 17.7692 5.21242L15.4537 7.63723C15.2722 7.82729 15.1814 7.92232 15.1255 8.03362C15.076 8.13214 15.0465 8.23952 15.0388 8.34951C15.0301 8.47377 15.0597 8.6018 15.1188 8.85787L16.5587 15.0975C16.6193 15.3603 16.6497 15.4918 16.6399 15.6189C16.6312 15.7314 16.5998 15.841 16.5475 15.941C16.4884 16.054 16.3931 16.1494 16.2023 16.3401L15.8933 16.6491C15.3882 17.1542 15.1356 17.4068 14.8772 17.4525C14.6514 17.4924 14.4192 17.4376 14.2352 17.301C14.0245 17.1445 13.9115 16.8056 13.6856 16.1279L12.0108 11.1035L9.22304 13.8913C9.05664 14.0577 8.97343 14.1409 8.91778 14.2389C8.86847 14.3257 8.83516 14.4206 8.81944 14.5192C8.80169 14.6305 8.81468 14.7475 8.84067 14.9813L8.99376 16.3592C9.01975 16.5931 9.03275 16.71 9.015 16.8213C8.99927 16.9199 8.96597 17.0148 8.91666 17.1016C8.861 17.1996 8.7778 17.2828 8.61139 17.4492L8.44681 17.6138C8.05259 18.008 7.85548 18.2051 7.63644 18.2622C7.44432 18.3123 7.24063 18.2921 7.06206 18.2053C6.85847 18.1064 6.70385 17.8745 6.3946 17.4106L5.08766 15.4502C5.03241 15.3673 5.00479 15.3259 4.97272 15.2883C4.94423 15.2549 4.91314 15.2238 4.87976 15.1953C4.84218 15.1633 4.80074 15.1356 4.71786 15.0804L2.75746 13.7735C2.29359 13.4642 2.06165 13.3096 1.96272 13.106C1.87594 12.9274 1.85577 12.7237 1.90584 12.5316C1.96293 12.3126 2.16003 12.1155 2.55425 11.7212L2.71884 11.5567C2.88524 11.3903 2.96845 11.3071 3.06643 11.2514C3.15323 11.2021 3.24819 11.1688 3.34677 11.1531C3.45805 11.1353 3.575 11.1483 3.80889 11.1743L5.18671 11.3274C5.42061 11.3534 5.53755 11.3664 5.64883 11.3486C5.74741 11.3329 5.84237 11.2996 5.92917 11.2503C6.02716 11.1946 6.11036 11.1114 6.27676 10.945L9.06453 8.15725L4.04013 6.48245C3.36244 6.25655 3.0236 6.1436 2.8671 5.93285C2.73045 5.74881 2.67564 5.51662 2.71556 5.2909C2.76128 5.03241 3.01384 4.77985 3.51896 4.27473L3.82794 3.96575C4.01868 3.77501 4.11405 3.67963 4.22705 3.62056C4.32706 3.56827 4.43664 3.53684 4.54916 3.52818C4.67629 3.51839 4.80771 3.54871 5.07056 3.60937L11.2865 5.04382C11.5448 5.10343 11.6739 5.13323 11.7986 5.12436C11.919 5.1158 12.0361 5.08119 12.1418 5.02293C12.2513 4.96259 12.3435 4.86736 12.5279 4.67691L14.7863 2.34423Z" stroke="#474747" stroke-width="1.5" stroke-linecap="round" stroke-linejoin="round"/>
</g>
</svg>
