<svg width="16" height="15" viewBox="0 0 16 15" fill="none" xmlns="http://www.w3.org/2000/svg">
<g id="Group 1000007336">
<path id="Rectangle 1" d="M5.7598 4.6665H4.62615C4.18043 4.6665 3.95757 4.6665 3.74815 4.71738C3.56248 4.76249 3.38519 4.83686 3.22291 4.93772C3.03987 5.05148 2.88371 5.21049 2.5714 5.52849L1.74321 6.37175C1.43854 6.68197 1.2862 6.83709 1.17731 7.01732C1.08076 7.17713 1.00967 7.35098 0.966572 7.53265C0.917969 7.73753 0.917969 7.95494 0.917969 8.38976V11.1201C0.917969 12.1282 0.917969 12.6322 1.11416 13.0172C1.28673 13.3559 1.56209 13.6313 1.90079 13.8039C2.28583 14.0001 2.78987 14.0001 3.79797 14.0001H12.2046C13.2127 14.0001 13.7168 14.0001 14.1018 13.8039C14.4405 13.6313 14.7159 13.3559 14.8884 13.0172C15.0846 12.6322 15.0846 12.1282 15.0846 11.1201V8.38976C15.0846 7.95494 15.0846 7.73753 15.036 7.53265C14.9929 7.35098 14.9218 7.17713 14.8253 7.01732C14.7164 6.83709 14.5641 6.68197 14.2594 6.37175L13.4312 5.52849C13.1189 5.21049 12.9627 5.05148 12.7797 4.93772C12.6174 4.83686 12.4401 4.76249 12.2545 4.71738C12.045 4.6665 11.8222 4.6665 11.3765 4.6665H10.0904" stroke="#474747" stroke-width="1.5"/>
<path id="Ellipse 152" d="M10.5846 3.39402C10.5846 4.86709 9.41534 6.03804 8.0013 6.03804C6.58727 6.03804 5.41797 4.86709 5.41797 3.39402C5.41797 1.92095 6.58727 0.75 8.0013 0.75C9.41534 0.75 10.5846 1.92095 10.5846 3.39402Z" stroke="#474747" stroke-width="1.5"/>
</g>
</svg>
