<svg width="20" height="20" viewBox="0 0 20 20" fill="none" xmlns="http://www.w3.org/2000/svg">
<g id="truck-02">
<path id="Icon" d="M13.3346 13.3333V5.16667C13.3346 4.23325 13.3346 3.76654 13.153 3.41002C12.9932 3.09641 12.7382 2.84144 12.4246 2.68166C12.0681 2.5 11.6014 2.5 10.668 2.5H4.33464C3.40121 2.5 2.9345 2.5 2.57798 2.68166C2.26438 2.84144 2.00941 3.09641 1.84962 3.41002C1.66797 3.76654 1.66797 4.23325 1.66797 5.16667V10.6667C1.66797 11.6001 1.66797 12.0668 1.84962 12.4233C2.00941 12.7369 2.26438 12.9919 2.57798 13.1517C2.9345 13.3333 3.40121 13.3333 4.33464 13.3333H13.3346ZM13.3346 13.3333H17.0013C17.468 13.3333 17.7014 13.3333 17.8796 13.2425C18.0364 13.1626 18.1639 13.0351 18.2438 12.8783C18.3346 12.7001 18.3346 12.4667 18.3346 12V9.71895C18.3346 9.51513 18.3346 9.41321 18.3116 9.31731C18.2912 9.23228 18.2575 9.15099 18.2118 9.07643C18.1603 8.99233 18.0882 8.92027 17.9441 8.77614L16.2252 7.05719C16.081 6.91306 16.009 6.841 15.9249 6.78947C15.8503 6.74378 15.769 6.71011 15.684 6.68969C15.5881 6.66667 15.4862 6.66667 15.2824 6.66667H13.3346M7.5013 15.4167C7.5013 16.5673 6.56856 17.5 5.41797 17.5C4.26738 17.5 3.33464 16.5673 3.33464 15.4167C3.33464 14.2661 4.26738 13.3333 5.41797 13.3333C6.56856 13.3333 7.5013 14.2661 7.5013 15.4167ZM16.668 15.4167C16.668 16.5673 15.7352 17.5 14.5846 17.5C13.434 17.5 12.5013 16.5673 12.5013 15.4167C12.5013 14.2661 13.434 13.3333 14.5846 13.3333C15.7352 13.3333 16.668 14.2661 16.668 15.4167Z" stroke="#474747" stroke-width="1.5" stroke-linecap="round" stroke-linejoin="round"/>
</g>
</svg>
