<svg width="20" height="20" viewBox="0 0 20 20" fill="none" xmlns="http://www.w3.org/2000/svg">
<g id="tool-02">
<path id="Icon" d="M5.0013 4.99984L8.7513 8.74984M5.0013 4.99984H2.5013L1.66797 2.49984L2.5013 1.6665L5.0013 2.49984V4.99984ZM16.0505 2.28401L13.8608 4.47369C13.5308 4.80371 13.3658 4.96872 13.3039 5.15899C13.2496 5.32636 13.2496 5.50665 13.3039 5.67402C13.3658 5.86429 13.5308 6.0293 13.8608 6.35931L14.0585 6.55703C14.3885 6.88704 14.5535 7.05205 14.7438 7.11387C14.9112 7.16825 15.0914 7.16825 15.2588 7.11387C15.4491 7.05205 15.6141 6.88704 15.9441 6.55703L17.9924 4.50877C18.213 5.04557 18.3346 5.6335 18.3346 6.24984C18.3346 8.78114 16.2826 10.8332 13.7513 10.8332C13.4461 10.8332 13.1479 10.8033 12.8594 10.7464C12.4543 10.6666 12.2518 10.6266 12.129 10.6388C11.9984 10.6518 11.9341 10.6714 11.8184 10.7333C11.7096 10.7915 11.6004 10.9007 11.3822 11.119L5.41797 17.0832C4.72761 17.7735 3.60833 17.7735 2.91797 17.0832C2.22761 16.3928 2.22761 15.2735 2.91797 14.5832L8.88216 8.61898C9.10045 8.40069 9.20959 8.29155 9.26782 8.18274C9.32972 8.06707 9.34929 8.00273 9.3623 7.87218C9.37454 7.74938 9.33459 7.54682 9.25469 7.1417C9.19779 6.85322 9.16797 6.55501 9.16797 6.24984C9.16797 3.71853 11.22 1.6665 13.7513 1.6665C14.5892 1.6665 15.3746 1.89136 16.0505 2.28401ZM10.0013 12.4998L14.5846 17.0831C15.275 17.7734 16.3943 17.7734 17.0846 17.0831C17.775 16.3927 17.775 15.2734 17.0846 14.5831L13.3141 10.8126C13.0471 10.7873 12.7869 10.7392 12.5353 10.6701C12.2111 10.5811 11.8554 10.6457 11.6177 10.8835L10.0013 12.4998Z" stroke="#474747" stroke-width="1.5" stroke-linecap="round" stroke-linejoin="round"/>
</g>
</svg>
