<svg width="20" height="20" viewBox="0 0 20 20" fill="none" xmlns="http://www.w3.org/2000/svg">
<g id="bank-note-03">
<path id="Icon" d="M11.668 7.49984H9.58464C8.89428 7.49984 8.33464 8.05948 8.33464 8.74984C8.33464 9.44019 8.89428 9.99984 9.58464 9.99984H10.418C11.1083 9.99984 11.668 10.5595 11.668 11.2498C11.668 11.9402 11.1083 12.4998 10.418 12.4998H8.33464M10.0013 6.6665V7.49984M10.0013 12.4998V13.3332M15.0013 9.99984H15.0096M5.0013 9.99984H5.00964M1.66797 6.83317L1.66797 13.1665C1.66797 14.0999 1.66797 14.5666 1.84962 14.9232C2.00941 15.2368 2.26438 15.4917 2.57798 15.6515C2.9345 15.8332 3.40121 15.8332 4.33463 15.8332L15.668 15.8332C16.6014 15.8332 17.0681 15.8332 17.4246 15.6515C17.7382 15.4917 17.9932 15.2368 18.153 14.9232C18.3346 14.5666 18.3346 14.0999 18.3346 13.1665V6.83317C18.3346 5.89975 18.3346 5.43304 18.153 5.07652C17.9932 4.76292 17.7382 4.50795 17.4246 4.34816C17.0681 4.16651 16.6014 4.16651 15.668 4.1665L4.33464 4.1665C3.40121 4.1665 2.9345 4.1665 2.57798 4.34816C2.26438 4.50795 2.00941 4.76292 1.84962 5.07652C1.66797 5.43304 1.66797 5.89975 1.66797 6.83317ZM15.418 9.99984C15.418 10.23 15.2314 10.4165 15.0013 10.4165C14.7712 10.4165 14.5846 10.23 14.5846 9.99984C14.5846 9.76972 14.7712 9.58317 15.0013 9.58317C15.2314 9.58317 15.418 9.76972 15.418 9.99984ZM5.41797 9.99984C5.41797 10.23 5.23142 10.4165 5.0013 10.4165C4.77118 10.4165 4.58464 10.23 4.58464 9.99984C4.58464 9.76972 4.77118 9.58317 5.0013 9.58317C5.23142 9.58317 5.41797 9.76972 5.41797 9.99984Z" stroke="#474747" stroke-width="1.5" stroke-linecap="round" stroke-linejoin="round"/>
</g>
</svg>
