<svg width="20" height="20" viewBox="0 0 20 20" fill="none" xmlns="http://www.w3.org/2000/svg">
<g id="bar-chart-square-plus">
<path id="Icon" d="M9.9987 2.49984H6.4987C5.09857 2.49984 4.3985 2.49984 3.86372 2.77232C3.39332 3.012 3.01087 3.39446 2.77118 3.86486C2.4987 4.39964 2.4987 5.09971 2.4987 6.49984V13.4998C2.4987 14.9 2.4987 15.6 2.77118 16.1348C3.01087 16.6052 3.39332 16.9877 3.86372 17.2274C4.3985 17.4998 5.09857 17.4998 6.4987 17.4998H13.4987C14.8988 17.4998 15.5989 17.4998 16.1337 17.2274C16.6041 16.9877 16.9865 16.6052 17.2262 16.1348C17.4987 15.6 17.4987 14.9 17.4987 13.4998V9.99984M13.332 10.8332V14.1665M6.66536 9.1665V14.1665M9.9987 5.83317V14.1665M15.832 6.6665V1.6665M18.332 4.1665H13.332" stroke="#474747" stroke-width="1.5" stroke-linecap="round" stroke-linejoin="round"/>
</g>
</svg>
